<?xml version="1.0" encoding="UTF-8"?>
<svg width="512" height="512" viewBox="0 0 512 512" fill="none" xmlns="http://www.w3.org/2000/svg">
    <rect width="512" height="512" rx="128" fill="#2563EB"/>
    <path d="M256 128C179.307 128 117.333 189.974 117.333 266.667C117.333 343.36 179.307 405.333 256 405.333C332.693 405.333 394.667 343.36 394.667 266.667C394.667 189.974 332.693 128 256 128ZM256 373.333C196.907 373.333 149.333 325.76 149.333 266.667C149.333 207.574 196.907 160 256 160C315.093 160 362.667 207.574 362.667 266.667C362.667 325.76 315.093 373.333 256 373.333Z" fill="white"/>
    <path d="M256 192C214.4 192 181.333 225.067 181.333 266.667C181.333 308.267 214.4 341.333 256 341.333C297.6 341.333 330.667 308.267 330.667 266.667C330.667 225.067 297.6 192 256 192ZM256 309.333C231.893 309.333 213.333 290.773 213.333 266.667C213.333 242.56 231.893 224 256 224C280.107 224 298.667 242.56 298.667 266.667C298.667 290.773 280.107 309.333 256 309.333Z" fill="white"/>
    <circle cx="256" cy="266.667" r="21.333" fill="white"/>
</svg> 